<?xml version="1.0" encoding="utf-8"?>
<!-- Generator: Adobe Illustrator 24.2.0, SVG Export Plug-In . SVG Version: 6.00 Build 0)  -->
<svg version="1.1" id="Layer_1" xmlns="http://www.w3.org/2000/svg" xmlns:xlink="http://www.w3.org/1999/xlink" x="0px" y="0px"
	 viewBox="0 0 283.46 283.46" style="enable-background:new 0 0 283.46 283.46;" xml:space="preserve">
<style type="text/css">
	.st0{fill:#F09F22;}
	.st1{fill:#387AB6;}
</style>
<g>
	<path class="st0" d="M145.92,138.5c12.46,12.46,18.88,31.9,9.89,40.89c-8.99,8.99-32.46,15.15-49.02-1.84s-9.55-38.7-0.56-47.69
		S133.46,126.04,145.92,138.5z"/>
	<path class="st1" d="M277.59,141.74c0,74.55-60.43,134.99-134.98,134.99c-15,0-29.42-2.45-42.9-6.96l93.87-93.87
		c9.51-10.54,15.31-24.51,15.31-39.84c0-32.85-26.63-59.49-59.49-59.49c-15.29,0-29.23,5.77-39.76,15.24l-94.5,94.5
		c-4.88-13.94-7.53-28.94-7.53-44.56C7.62,67.19,68.06,6.76,142.61,6.76S277.59,67.19,277.59,141.74z"/>
	<circle class="st0" cx="180.9" cy="156.13" r="14.39"/>
	<circle class="st0" cx="163.05" cy="120.73" r="14.39"/>
	<circle class="st0" cx="128.89" cy="105.24" r="14.39"/>
</g>
</svg>
